PathFileType  4	(X/Y/Z)
DataRate	CameraRate	NumFrames	NumMarkers	Units	OrigDataRate	OrigDataStartFrame	OrigNumFrames
  100.0 	  100.0 	    6 	     42 	mm 	  100.0 	      178 	    237
Frame#	Time	R.Shoulder			R.Clavicle			R.Bicep			R.Elbow			R.Forearm			R.Wrist			L.Shoulder			L.Clavicle			L.Scapula			L.Bicep			L.Elbow			L.Forearm			L.Wrist			R.ASIS			R.Iliac			S2			L.Iliac			L.ASIS			R.TH1			R.TH2			R.TH3			R.Knee			R.SH1			R.SH2			R.SH3			R.SH4			R.Ankle			R.Heel			R.MT5			L.TH1			L.TH2			L.TH3			L.TH4			L.Knee			L.SH1			L.SH2			L.SH3			L.Ankle			L.Heel			L.MT5			R_HJC			L_HJC			
		X1	Y1	Z1	X2	Y2	Z2	X3	Y3	Z3	X4	Y4	Z4	X5	Y5	Z5	X6	Y6	Z6	X7	Y7	Z7	X8	Y8	Z8	X9	Y9	Z9	X10	Y10	Z10	X11	Y11	Z11	X12	Y12	Z12	X13	Y13	Z13	X14	Y14	Z14	X15	Y15	Z15	X16	Y16	Z16	X17	Y17	Z17	X18	Y18	Z18	X19	Y19	Z19	X20	Y20	Z20	X21	Y21	Z21	X22	Y22	Z22	X23	Y23	Z23	X24	Y24	Z24	X25	Y25	Z25	X26	Y26	Z26	X27	Y27	Z27	X28	Y28	Z28	X29	Y29	Z29	X30	Y30	Z30	X31	Y31	Z31	X32	Y32	Z32	X33	Y33	Z33	X34	Y34	Z34	X35	Y35	Z35	X36	Y36	Z36	X37	Y37	Z37	X38	Y38	Z38	X39	Y39	Z39	X40	Y40	Z40	X41	Y41	Z41	X42	Y42	Z42	

178	1.77000	607.128	1391.534	-8.567	663.008	1372.771	-168.333	649.219	1225.689	3.417	615.071	1083.629	69.629	732.391	993.929	31.225	776.481	898.754	63.934	529.709	1389.998	-386.277	662.639	1373.322	-234.908	445.628	1282.417	-238.924	540.678	1222.096	-404.300	429.636	1110.196	-441.727	463.224	973.523	-461.287	403.525	869.487	-489.404	657.743	924.773	-46.885	556.000	1006.561	-37.781	474.684	942.810	-207.552	572.493	1002.482	-359.469	670.191	927.779	-324.595	641.027	678.568	-78.849	612.948	598.609	-98.600	492.774	619.461	-16.521	438.325	483.267	-58.615	439.260	331.744	-96.491	402.824	268.340	-107.170	343.574	376.993	-49.942	306.157	314.062	-61.604	260.713	122.370	-111.895	189.219	92.973	-175.215	362.785	35.386	-76.664	734.422	750.985	-339.256	764.017	673.763	-323.225	604.296	691.787	-388.727	636.992	611.709	-369.719	733.403	484.263	-341.640	817.905	383.897	-325.276	847.847	314.902	-320.967	744.212	267.254	-335.387	875.599	95.638	-305.157	843.951	28.266	-236.375	1008.870	94.137	-333.716	583.629	833.732	-91.677	593.206	831.719	-301.257
179	1.78000	620.199	1390.519	-9.869	675.690	1371.761	-169.820	662.118	1224.604	2.157	627.739	1082.661	68.490	745.448	993.410	29.853	790.111	898.485	62.358	541.777	1388.534	-387.414	675.155	1372.182	-236.392	458.289	1280.900	-239.637	552.353	1220.838	-405.699	440.483	1109.598	-443.089	472.693	972.695	-463.281	411.773	869.315	-491.286	671.822	923.180	-47.585	569.824	1004.913	-38.454	488.317	941.366	-208.272	585.464	1001.728	-360.264	683.779	927.471	-325.655	654.201	676.655	-79.651	625.948	596.796	-99.272	505.863	618.170	-17.176	450.423	482.363	-58.678	447.765	330.615	-96.298	409.769	268.106	-106.926	353.278	378.253	-49.604	314.330	316.254	-61.188	263.966	125.691	-110.973	191.502	98.452	-174.363	363.483	35.572	-76.467	749.565	753.136	-339.159	780.225	676.508	-322.562	620.962	691.702	-390.163	654.761	612.116	-370.516	749.779	484.412	-341.554	831.490	381.608	-324.599	859.588	311.945	-320.056	754.876	266.972	-335.057	881.297	93.265	-304.008	847.629	28.208	-235.443	1014.544	88.315	-331.832	597.895	832.276	-92.869	607.033	830.910	-302.473
180	1.79000	633.378	1389.703	-11.222	688.370	1370.973	-171.411	674.983	1223.671	0.866	640.199	1081.884	67.293	758.232	992.956	28.492	803.319	898.224	60.809	553.827	1387.342	-388.570	687.686	1371.304	-237.974	471.032	1279.542	-240.340	564.124	1219.904	-407.205	451.440	1109.183	-444.421	482.558	972.155	-465.405	420.662	869.326	-493.281	686.185	921.663	-48.322	583.929	1003.335	-39.084	502.192	940.085	-208.943	598.697	1001.334	-361.013	697.730	927.627	-326.727	667.849	674.890	-80.556	639.534	595.088	-100.089	519.533	616.781	-17.959	463.267	481.379	-58.742	456.835	329.470	-96.020	417.213	267.929	-106.608	363.623	379.622	-49.328	323.079	318.639	-60.857	267.701	129.385	-110.085	194.325	104.585	-173.570	364.287	35.844	-76.275	765.127	755.494	-339.355	796.727	679.373	-322.185	637.907	692.002	-391.749	672.634	612.894	-371.470	765.949	484.758	-341.720	844.761	379.375	-324.222	870.878	309.006	-319.443	765.021	266.888	-334.997	886.137	90.977	-303.236	849.861	28.665	-234.887	1019.184	81.840	-329.937	612.528	830.948	-94.176	621.228	830.440	-303.803
181	1.80000	646.639	1389.087	-12.615	701.041	1370.433	-173.085	687.793	1222.890	-0.448	652.448	1081.292	66.054	770.742	992.570	27.150	816.094	897.972	59.290	565.857	1386.423	-389.740	700.212	1370.715	-239.629	483.847	1278.363	-241.046	576.006	1219.300	-408.813	462.498	1108.944	-445.726	492.810	971.887	-467.656	430.202	869.496	-495.389	700.819	920.242	-49.099	598.331	1001.839	-39.666	516.321	939.003	-209.597	612.258	1001.360	-361.694	712.013	928.224	-327.776	681.999	673.296	-81.484	653.739	593.484	-100.941	533.759	615.327	-18.842	476.853	480.362	-58.771	466.492	328.352	-95.608	425.188	267.862	-106.174	374.621	381.139	-49.138	332.421	321.263	-60.636	272.008	133.482	-109.263	197.828	111.438	-172.891	365.210	36.238	-76.098	780.973	757.761	-339.966	813.219	681.977	-322.277	654.803	692.715	-393.485	690.111	613.990	-372.636	781.596	485.279	-342.235	857.627	377.388	-324.264	881.775	306.337	-319.242	774.811	267.040	-335.283	890.535	88.922	-302.881	851.272	29.644	-234.659	1023.155	75.090	-328.164	627.485	829.764	-95.605	635.769	830.342	-305.249
182	1.81000	659.943	1388.679	-14.035	713.701	1370.167	-174.817	700.529	1222.276	-1.782	664.480	1080.888	64.784	782.972	992.255	25.827	828.429	897.731	57.808	577.874	1385.771	-390.919	712.727	1370.431	-241.329	496.721	1277.391	-241.764	588.029	1219.009	-410.504	473.672	1108.872	-447.005	503.463	971.877	-470.020	440.402	869.802	-497.604	715.687	918.949	-49.918	613.021	1000.454	-40.212	530.691	938.158	-210.272	626.156	1001.854	-362.293	726.551	929.219	-328.779	696.676	671.900	-82.371	668.610	591.987	-101.717	548.538	613.840	-19.777	491.204	479.343	-58.723	476.777	327.302	-95.014	433.745	267.957	-105.585	386.306	382.833	-49.041	342.410	324.159	-60.539	276.990	138.010	-108.534	202.175	119.089	-172.384	366.260	36.802	-75.948	796.919	759.749	-341.039	829.439	684.097	-322.952	671.366	693.857	-395.388	706.837	615.351	-374.073	796.571	485.979	-343.164	870.076	375.771	-324.774	892.333	304.092	-319.499	784.367	267.481	-335.996	894.649	87.168	-302.916	852.295	31.050	-234.697	1026.654	68.376	-326.647	642.691	828.751	-97.158	650.590	830.637	-306.808
183	1.82000	673.244	1388.496	-15.463	726.353	1370.193	-176.574	713.173	1221.859	-3.129	676.290	1080.685	63.486	794.907	992.020	24.518	840.319	897.511	56.370	589.887	1385.376	-392.104	725.234	1370.454	-243.043	509.641	1276.643	-242.498	600.227	1218.997	-412.243	484.999	1108.962	-448.262	514.546	972.111	-472.478	451.268	870.225	-499.920	730.725	917.823	-50.785	627.954	999.221	-40.745	545.254	937.589	-210.997	640.347	1002.831	-362.809	741.234	930.547	-329.732	711.896	670.736	-83.174	684.200	590.616	-102.320	563.887	612.343	-20.706	506.370	478.327	-58.553	487.751	326.344	-94.190	442.962	268.247	-104.811	398.740	384.725	-49.025	353.139	327.345	-60.567	282.774	142.993	-107.918	207.555	127.606	-172.099	367.452	37.602	-75.842	812.748	761.395	-342.554	845.187	685.679	-324.242	687.388	695.407	-397.474	722.627	616.925	-375.824	810.920	486.874	-344.513	882.150	374.558	-325.713	902.580	302.308	-320.176	793.754	268.258	-337.203	898.451	85.742	-303.260	853.188	32.733	-234.934	1029.749	61.952	-325.484	658.042	827.942	-98.826	665.583	831.325	-308.471
